<svg xmlns="http://www.w3.org/2000/svg" viewBox="0 0 454.97 131.56"><defs><style>.cls-1{fill:#00a6b0;}.cls-2{fill:none;stroke:#00a6b0;stroke-width:6.3px;}</style></defs><g id="Layer_2" data-name="Layer 2"><g id="Layer_1-2" data-name="Layer 1"><path class="cls-1" d="M406.23,55.6A6.49,6.49,0,0,1,409,59.68V70.79a1.66,1.66,0,0,0,1.66,1.65,1.83,1.83,0,0,1,1.83,1.83,1.65,1.65,0,0,0,1.65,1.65h10.31a1.66,1.66,0,0,0,1.66-1.65,1.82,1.82,0,0,1,1.82-1.83,1.66,1.66,0,0,0,1.66-1.65V59.68a6.39,6.39,0,0,1,2.73-4,23.84,23.84,0,0,0-13-43.82h0A23.84,23.84,0,0,0,406.23,55.6Zm20,13.8a5.18,5.18,0,0,0-3.2,3.21h-7.54a5.22,5.22,0,0,0-3.21-3.21V67.64h7a1.66,1.66,0,1,0,0-3.32h-7V61.17h13.95V69.4Zm-7-54.28h0a20.53,20.53,0,0,1,11.2,37.74,9.72,9.72,0,0,0-3.85,5h-1.91V44.26h1.05a4.37,4.37,0,0,0,4.37-4.36v-.22a4.37,4.37,0,0,0-8.74,0V41h-4V39.68a4.37,4.37,0,0,0-4.37-4.37h-.28a4.37,4.37,0,0,0-4.37,4.37v.22a4.37,4.37,0,0,0,4.37,4.36h1.33v2a1.66,1.66,0,0,0,3.32,0v-2h4V57.85h-9.48a9.87,9.87,0,0,0-3.89-5,20.53,20.53,0,0,1,11.24-37.71ZM424.74,41V39.67a1.05,1.05,0,0,1,2.1,0v.23a1.06,1.06,0,0,1-1,1.05Zm-10.61-1.28V41H412.8a1.06,1.06,0,0,1-1.05-1.05v-.23a1.06,1.06,0,0,1,1.05-1.05h.28a1.06,1.06,0,0,1,1.05,1.05Z"/><path class="cls-1" d="M419.3,9.22A1.65,1.65,0,0,0,421,7.56V1.66a1.66,1.66,0,1,0-3.31,0v5.9a1.66,1.66,0,0,0,1.66,1.66Z"/><path class="cls-1" d="M385.32,37.33h5.9a1.66,1.66,0,0,0,0-3.32h-5.9a1.66,1.66,0,1,0,0,3.32Z"/><path class="cls-1" d="M447.41,37.29h5.9a1.66,1.66,0,1,0,0-3.31h-5.9a1.66,1.66,0,1,0,0,3.31Z"/><path class="cls-1" d="M399.46,53.87a1.67,1.67,0,0,0-1.17.49l-4.17,4.18a1.65,1.65,0,1,0,2.34,2.34l4.17-4.18a1.66,1.66,0,0,0-1.17-2.83Z"/><path class="cls-1" d="M440.34,17l4.17-4.18a1.65,1.65,0,0,0,0-2.34,1.64,1.64,0,0,0-2.34,0L438,14.6A1.68,1.68,0,0,0,438,17a1.66,1.66,0,0,0,2.35,0Z"/><path class="cls-1" d="M398.26,17a1.66,1.66,0,1,0,2.35-2.34l-4.18-4.17a1.61,1.61,0,0,0-1.17-.49,1.63,1.63,0,0,0-1.17.49,1.65,1.65,0,0,0,0,2.34L398.26,17Z"/><path class="cls-1" d="M440.36,54.33a1.64,1.64,0,0,0-1.17-.48A1.66,1.66,0,0,0,438,56.68l4.17,4.17a1.66,1.66,0,0,0,2.35-2.34l-4.18-4.18Z"/><path class="cls-1" d="M404.86,37.31a1.65,1.65,0,0,0,1.65-1.65,12.73,12.73,0,0,1,7.07-11.45,1.65,1.65,0,0,0,.75-2.22,1.67,1.67,0,0,0-1.49-.92,1.65,1.65,0,0,0-.74.18,16,16,0,0,0-8.9,14.41,1.65,1.65,0,0,0,1.66,1.65Z"/><path class="cls-1" d="M415.79,54.54a1.66,1.66,0,0,0,1.17-.49,1.68,1.68,0,0,0,.49-1.17,1.66,1.66,0,0,0-3.32,0,1.68,1.68,0,0,0,.49,1.17,1.66,1.66,0,0,0,1.17.49Z"/><path class="cls-1" d="M419.29,22.88a1.66,1.66,0,0,0,1.17-.49,1.68,1.68,0,0,0,.49-1.17,1.67,1.67,0,0,0-1.66-1.66,1.64,1.64,0,0,0-1.17.49,1.66,1.66,0,0,0-.49,1.17,1.68,1.68,0,0,0,.49,1.17,1.64,1.64,0,0,0,1.17.49Z"/><path class="cls-2" d="M366.58,106.78c14-3.14,29.54.49,39.41-1.31s20.47-9.39,14.19-30.36"/><path class="cls-1" d="M40.23,78.92a22.76,22.76,0,0,0-5.66-7.6,25.61,25.61,0,0,0-8.28-4.79,29.71,29.71,0,0,0-10-1.67H0v48.47H16.33a29.71,29.71,0,0,0,10-1.67,25.61,25.61,0,0,0,8.28-4.79,22.72,22.72,0,0,0,5.66-7.59,26,26,0,0,0,0-20.36ZM29.29,95.29a13.18,13.18,0,0,1-3.38,4.4A14.12,14.12,0,0,1,21,102.35a20.25,20.25,0,0,1-6,.88H11.32V75H15a20.24,20.24,0,0,1,6,.87,14.12,14.12,0,0,1,4.94,2.66,13,13,0,0,1,3.38,4.44,15.88,15.88,0,0,1,0,12.35Zm50.08,11.35a4.67,4.67,0,0,1-2.89-1.55,5.32,5.32,0,0,1-1.06-3.54V91.68q0-6.69-4.18-10.26T59.85,77.85a30,30,0,0,0-6.38.69,19.57,19.57,0,0,0-5.17,1.74l.84,8.51a16.75,16.75,0,0,1,4.4-1.67,23.23,23.23,0,0,1,5.7-.68,6.85,6.85,0,0,1,4.14,1A3.12,3.12,0,0,1,64.63,90v1.21l-6.83.69a14.57,14.57,0,0,0-8.4,3.45,9.8,9.8,0,0,0-3.3,7.71,11.22,11.22,0,0,0,.95,4.75,10.14,10.14,0,0,0,2.66,3.57,11.49,11.49,0,0,0,3.95,2.24,15.84,15.84,0,0,0,10.25-.19,10.43,10.43,0,0,0,4.29-2.92q2.13,3.49,7.3,3.87l3.87-7.75Zm-14.43-5.16a4.58,4.58,0,0,1-1.71,3.65,5.7,5.7,0,0,1-3.76,1.44,3.6,3.6,0,0,1-2.62-1,3.13,3.13,0,0,1-1-2.35,4.66,4.66,0,0,1,1-2.93,4.72,4.72,0,0,1,3.45-1.56l4.64-.45v3.19ZM94.05,65.93A11.4,11.4,0,0,0,92.49,64a11.82,11.82,0,0,0-1.9-1.56,2.47,2.47,0,0,0-3.34,0A10.41,10.41,0,0,0,85.39,64a12.18,12.18,0,0,0-1.52,1.9,3.23,3.23,0,0,0-.65,1.67,3.29,3.29,0,0,0,.65,1.67,12.66,12.66,0,0,0,1.52,1.9,9.39,9.39,0,0,0,1.86,1.52,2.62,2.62,0,0,0,3.34,0,10.56,10.56,0,0,0,1.9-1.52,11.82,11.82,0,0,0,1.56-1.9,3.26,3.26,0,0,0,.64-1.67,3.2,3.2,0,0,0-.64-1.67Zm.57,47.4V78.92H83.37v34.41ZM125.12,88l-.84-9.65A17.83,17.83,0,0,0,117,79.68a9.31,9.31,0,0,0-4.67,4.63l-.3-5.39H101.8v34.41h11V99.73a13.72,13.72,0,0,1,1-5.35,9.81,9.81,0,0,1,2.55-3.65A10.49,10.49,0,0,1,120,88.64a13.29,13.29,0,0,1,4.26-.68Zm38.2-9H152.83l-5.16,13.52q-.61,1.52-1.11,3.15c-.33,1.09-.64,2.24-.95,3.46h-.15c-.35-1.27-.69-2.45-1-3.53s-.7-2.14-1.11-3.16l-5.09-13.44h-11l12.84,32.66a36.61,36.61,0,0,1-2.51,5.09,21.07,21.07,0,0,1-2.7,3.61,13,13,0,0,1-3.07,2.43,22.55,22.55,0,0,1-3.65,1.64l4.56,7.21a19.66,19.66,0,0,0,10.63-6.8,50.92,50.92,0,0,0,7.91-14.39l12.08-31.45Z"/><path class="cls-1" d="M184.1,76.94V67l-4.79,2.51v7.44h-7.14v4h7.14v21.78a8.85,8.85,0,0,0,2.66,6.86,9.74,9.74,0,0,0,6.84,2.43,10.65,10.65,0,0,0,3.19-.38l1.14-4.56a9.33,9.33,0,0,1-3.95.69c-3.4,0-5.09-1.65-5.09-4.94V80.89h11.32l1-4Zm33.73-.46a14.33,14.33,0,0,0-7.64,1.94,9.8,9.8,0,0,0-4.29,5.13l-.23-6.61h-4.56v34.41h4.79V94.49q0-6.69,3.65-10.48a11.21,11.21,0,0,1,8.5-3.42h.76l-1-4.11Zm28.62,26.9V87.65a10.55,10.55,0,0,0-3.53-8.43,13.64,13.64,0,0,0-9.23-3,17.94,17.94,0,0,0-10.33,2.74l1,4a16.1,16.1,0,0,1,9.12-2.58,9,9,0,0,1,6,1.82,6.27,6.27,0,0,1,2.13,5v3.26l-9.19.91a13.57,13.57,0,0,0-7.6,3,10.07,10.07,0,0,0-.3,14.85,11.07,11.07,0,0,0,7.9,2.92q7.07,0,10-5.24a5.77,5.77,0,0,0,1.82,3.42,6.79,6.79,0,0,0,3.34,1.82l3.12-3.11q-4.26-.77-4.26-5.62Zm-7.71,2.09a9.14,9.14,0,0,1-6.19,2.54,6.7,6.7,0,0,1-4.64-1.71A5.54,5.54,0,0,1,226,102,6.08,6.08,0,0,1,228,97.38a8.46,8.46,0,0,1,5.21-2.13l8.43-.76v4.63a8.16,8.16,0,0,1-2.85,6.35Zm21.91-41.22c-.81-.91-1.49-1.36-2-1.36s-1.23.45-2,1.36a3.94,3.94,0,0,0-1.18,2.36,3.88,3.88,0,0,0,1.18,2.28c.78.91,1.45,1.36,2,1.36s1.24-.45,2-1.36a3.87,3.87,0,0,0,1.22-2.28,3.93,3.93,0,0,0-1.22-2.36ZM261,76.94h-4.86v34.41H261V76.94Zm37.63,11.24A11.06,11.06,0,0,0,295,79.41a13.83,13.83,0,0,0-9.46-3.23q-7.81,0-11.24,4.94l-.15-4.18h-4.33v34.41h4.78V88.64a7.49,7.49,0,0,1,2.7-6,10.5,10.5,0,0,1,7.1-2.32,10,10,0,0,1,7,2.28,7.7,7.7,0,0,1,2.51,6v22.71h4.79V88.18Zm13-23.93c-.81-.91-1.5-1.36-2.05-1.36s-1.23.45-2,1.36a4,4,0,0,0-1.17,2.36,3.91,3.91,0,0,0,1.17,2.28c.79.91,1.46,1.36,2,1.36s1.24-.45,2.05-1.36a3.84,3.84,0,0,0,1.21-2.28,3.9,3.9,0,0,0-1.21-2.36Zm.38,12.69h-4.86v34.41h4.86V76.94Zm37.63,11.24A11.06,11.06,0,0,0,346,79.41a13.85,13.85,0,0,0-9.46-3.23q-7.81,0-11.24,4.94l-.15-4.18h-4.33v34.41h4.78V88.64a7.49,7.49,0,0,1,2.7-6,10.5,10.5,0,0,1,7.1-2.32,10,10,0,0,1,7,2.28,7.73,7.73,0,0,1,2.51,6v22.71h4.79V88.18Zm25.55,19-8.89-3a6.78,6.78,0,0,1-2.09-1.25q-1-.87-1-1.17,0-2.66,5.92-2.66a12.64,12.64,0,0,0,9.12-3.34,10.78,10.78,0,0,0,3.49-8.11,8.73,8.73,0,0,0-2.5-6.45A8.88,8.88,0,0,0,384,80.13l-1-3.95a11.58,11.58,0,0,1-5.24,1.14,15.5,15.5,0,0,1-4.26-.53,15.46,15.46,0,0,0-4.33-.61,12.93,12.93,0,0,0-9.07,3.23,10.57,10.57,0,0,0-3.54,8.17q0,6.67,6.31,9.8a7.11,7.11,0,0,0-3.31,2.16,5,5,0,0,0-1.48,3.31l4.1,3.72a10.12,10.12,0,0,0-5.62,3.49,10.5,10.5,0,0,0-2.5,7,10.38,10.38,0,0,0,4.25,8.47q4.26,3.39,11,3.38t10.9-3.11a9.35,9.35,0,0,0,4.21-7.81q0-7.67-9.19-10.77Zm-.34-14.35A8.17,8.17,0,0,1,369.23,95a8.33,8.33,0,0,1-5.85-2.16A6.93,6.93,0,0,1,361,87.58a6.84,6.84,0,0,1,2.36-5.21,8.33,8.33,0,0,1,5.85-2.16A8.11,8.11,0,0,1,375,82.37a7,7,0,0,1-.08,10.49Zm2.16,29.89a13,13,0,0,1-7.82,2.2,12.69,12.69,0,0,1-8.05-2.43,6.82,6.82,0,0,1-2.81-5.47,7.3,7.3,0,0,1,2.39-5.58,8.82,8.82,0,0,1,6.11-2.32l6.92,2.13q6.07,1.89,6.08,6.68a5.88,5.88,0,0,1-2.82,4.79Z"/></g></g></svg>