<svg width="2172" height="489" viewBox="0 0 2172 489" fill="none" xmlns="http://www.w3.org/2000/svg">
<path d="M151.677 259.53C151.677 249.818 148.25 242.392 141.394 237.25C134.539 231.994 122.199 226.51 104.375 220.797C86.5503 214.97 72.4395 209.257 62.042 203.658C33.7061 188.348 19.5381 167.724 19.5381 141.788C19.5381 128.305 23.3086 116.308 30.8496 105.796C38.5049 95.1704 49.4165 86.8867 63.5845 80.9453C77.8667 75.0039 93.8628 72.0332 111.573 72.0332C129.397 72.0332 145.279 75.2896 159.218 81.8022C173.158 88.2007 183.955 97.2842 191.61 109.053C199.38 120.821 203.265 134.189 203.265 149.157H151.849C151.849 137.731 148.25 128.876 141.051 122.592C133.853 116.194 123.741 112.995 110.716 112.995C98.1475 112.995 88.3784 115.68 81.4087 121.05C74.439 126.306 70.9541 133.275 70.9541 141.959C70.9541 150.071 75.0103 156.87 83.1226 162.354C91.3491 167.838 103.403 172.98 119.285 177.779C148.535 186.577 169.844 197.488 183.212 210.514C196.581 223.539 203.265 239.764 203.265 259.188C203.265 280.782 195.095 297.75 178.756 310.089C162.417 322.315 140.423 328.428 112.772 328.428C93.5771 328.428 76.0957 324.943 60.3281 317.973C44.5605 310.889 32.5063 301.234 24.1655 289.009C15.939 276.783 11.8257 262.615 11.8257 246.505H63.4131C63.4131 274.041 79.8662 287.809 112.772 287.809C124.998 287.809 134.539 285.353 141.394 280.439C148.25 275.412 151.677 268.442 151.677 259.53ZM469.223 241.877C467.28 268.728 457.34 289.866 439.401 305.291C421.577 320.715 398.04 328.428 368.79 328.428C336.798 328.428 311.604 317.688 293.208 296.207C274.927 274.612 265.787 245.02 265.787 207.429V192.175C265.787 168.181 270.014 147.043 278.469 128.762C286.924 110.481 298.978 96.4844 314.632 86.7725C330.399 76.9463 348.681 72.0332 369.475 72.0332C398.268 72.0332 421.463 79.7456 439.059 95.1704C456.654 110.595 466.823 132.247 469.565 160.126H418.149C416.892 144.016 412.379 132.361 404.61 125.163C396.954 117.851 385.243 114.194 369.475 114.194C352.337 114.194 339.483 120.364 330.913 132.704C322.458 144.93 318.117 163.954 317.888 189.776V208.628C317.888 235.593 321.944 255.303 330.057 267.757C338.283 280.211 351.194 286.438 368.79 286.438C384.672 286.438 396.497 282.839 404.267 275.641C412.151 268.328 416.664 257.074 417.807 241.877H469.223ZM678.966 273.584H588.816L571.678 325H517.005L609.897 75.4609H657.542L750.948 325H696.276L678.966 273.584ZM602.699 231.937H665.083L633.72 138.531L602.699 231.937ZM901.734 233.651H860.773V325H809.357V75.4609H902.077C931.555 75.4609 954.293 82.0308 970.289 95.1704C986.285 108.31 994.283 126.877 994.283 150.871C994.283 167.896 990.57 182.121 983.143 193.546C975.83 204.858 964.69 213.884 949.722 220.625L1003.71 322.601V325H948.523L901.734 233.651ZM860.773 192.004H902.248C915.159 192.004 925.157 188.748 932.241 182.235C939.325 175.608 942.867 166.524 942.867 154.984C942.867 143.216 939.496 133.961 932.755 127.22C926.128 120.479 915.902 117.108 902.077 117.108H860.773V192.004ZM1434.85 273.584H1344.7L1327.56 325H1272.89L1365.78 75.4609H1413.43L1506.83 325H1452.16L1434.85 273.584ZM1358.58 231.937H1420.97L1389.6 138.531L1358.58 231.937ZM1732.51 117.108H1656.08V325H1604.66V117.108H1529.25V75.4609H1732.51V117.108ZM1987.67 117.108H1911.24V325H1859.82V117.108H1784.41V75.4609H1987.67V117.108ZM2106.93 325H2055.51V75.4609H2106.93V325Z" fill="#3C3C3C"/>
<path d="M1120.05 283.696H1229.22V325H1068.63V75.4609H1120.05V283.696Z" fill="#E4813F"/>
<path d="M29.3994 443.577H18.8965V467H5.71289V403.016H29.4873C37.0459 403.016 42.876 404.7 46.9775 408.069C51.0791 411.438 53.1299 416.199 53.1299 422.352C53.1299 426.717 52.1777 430.364 50.2734 433.294C48.3984 436.194 45.542 438.509 41.7041 440.237L55.5469 466.385V467H41.3965L29.3994 443.577ZM18.8965 432.898H29.5312C32.8418 432.898 35.4053 432.063 37.2217 430.394C39.0381 428.694 39.9463 426.365 39.9463 423.406C39.9463 420.389 39.082 418.016 37.3535 416.287C35.6543 414.559 33.0322 413.694 29.4873 413.694H18.8965V432.898ZM93.2432 467.879C86.2705 467.879 80.5869 465.74 76.1924 461.463C71.8271 457.186 69.6445 451.487 69.6445 444.368V443.138C69.6445 438.362 70.5674 434.1 72.4131 430.35C74.2588 426.57 76.8662 423.67 80.2354 421.648C83.6338 419.598 87.501 418.572 91.8369 418.572C98.3408 418.572 103.453 420.623 107.174 424.725C110.924 428.826 112.799 434.642 112.799 442.171V447.356H82.5205C82.9307 450.462 84.1611 452.952 86.2119 454.827C88.292 456.702 90.9141 457.64 94.0781 457.64C98.9707 457.64 102.794 455.867 105.548 452.322L111.788 459.31C109.884 462.005 107.306 464.114 104.054 465.638C100.802 467.132 97.1982 467.879 93.2432 467.879ZM91.793 428.855C89.2734 428.855 87.2227 429.705 85.6406 431.404C84.0879 433.104 83.0918 435.535 82.6523 438.699H100.318V437.688C100.26 434.876 99.498 432.708 98.0332 431.185C96.5684 429.632 94.4883 428.855 91.793 428.855ZM154.802 453.86C154.802 452.308 154.025 451.092 152.473 450.213C150.949 449.305 148.488 448.499 145.09 447.796C133.781 445.423 128.127 440.618 128.127 433.382C128.127 429.163 129.87 425.647 133.356 422.835C136.872 419.993 141.457 418.572 147.111 418.572C153.146 418.572 157.966 419.993 161.569 422.835C165.202 425.677 167.019 429.368 167.019 433.909H154.318C154.318 432.093 153.732 430.599 152.561 429.427C151.389 428.226 149.558 427.625 147.067 427.625C144.929 427.625 143.273 428.108 142.102 429.075C140.93 430.042 140.344 431.272 140.344 432.767C140.344 434.173 141.003 435.315 142.321 436.194C143.669 437.044 145.925 437.791 149.089 438.436C152.253 439.051 154.919 439.754 157.087 440.545C163.796 443.006 167.15 447.269 167.15 453.333C167.15 457.669 165.29 461.185 161.569 463.88C157.849 466.546 153.044 467.879 147.155 467.879C143.171 467.879 139.626 467.176 136.521 465.77C133.444 464.334 131.027 462.386 129.27 459.925C127.512 457.435 126.633 454.754 126.633 451.883H138.674C138.791 454.139 139.626 455.867 141.179 457.068C142.731 458.27 144.812 458.87 147.419 458.87C149.851 458.87 151.682 458.416 152.912 457.508C154.172 456.57 154.802 455.354 154.802 453.86ZM206.253 467.879C199.28 467.879 193.597 465.74 189.202 461.463C184.837 457.186 182.654 451.487 182.654 444.368V443.138C182.654 438.362 183.577 434.1 185.423 430.35C187.269 426.57 189.876 423.67 193.245 421.648C196.644 419.598 200.511 418.572 204.847 418.572C211.351 418.572 216.463 420.623 220.184 424.725C223.934 428.826 225.809 434.642 225.809 442.171V447.356H195.53C195.94 450.462 197.171 452.952 199.222 454.827C201.302 456.702 203.924 457.64 207.088 457.64C211.98 457.64 215.804 455.867 218.558 452.322L224.798 459.31C222.894 462.005 220.315 464.114 217.063 465.638C213.812 467.132 210.208 467.879 206.253 467.879ZM204.803 428.855C202.283 428.855 200.232 429.705 198.65 431.404C197.098 433.104 196.102 435.535 195.662 438.699H213.328V437.688C213.27 434.876 212.508 432.708 211.043 431.185C209.578 429.632 207.498 428.855 204.803 428.855ZM269.613 467C269.027 465.857 268.603 464.437 268.339 462.737C265.263 466.165 261.264 467.879 256.342 467.879C251.684 467.879 247.816 466.531 244.74 463.836C241.693 461.141 240.17 457.742 240.17 453.641C240.17 448.602 242.03 444.734 245.751 442.039C249.501 439.344 254.906 437.981 261.967 437.952H267.812V435.228C267.812 433.03 267.24 431.272 266.098 429.954C264.984 428.636 263.212 427.977 260.78 427.977C258.642 427.977 256.957 428.489 255.727 429.515C254.525 430.54 253.925 431.946 253.925 433.733H241.225C241.225 430.979 242.074 428.431 243.773 426.087C245.473 423.743 247.875 421.912 250.98 420.594C254.086 419.246 257.572 418.572 261.439 418.572C267.299 418.572 271.942 420.052 275.37 423.011C278.827 425.94 280.556 430.071 280.556 435.403V456.014C280.585 460.525 281.215 463.938 282.445 466.253V467H269.613ZM259.11 458.167C260.985 458.167 262.714 457.757 264.296 456.937C265.878 456.087 267.05 454.959 267.812 453.553V445.379H263.065C256.708 445.379 253.324 447.576 252.914 451.971L252.87 452.718C252.87 454.3 253.427 455.604 254.54 456.629C255.653 457.654 257.177 458.167 259.11 458.167ZM326.03 431.36C324.302 431.126 322.778 431.009 321.46 431.009C316.655 431.009 313.506 432.635 312.012 435.887V467H299.312V419.451H311.309L311.66 425.12C314.209 420.755 317.739 418.572 322.251 418.572C323.657 418.572 324.976 418.763 326.206 419.144L326.03 431.36ZM360.079 457.64C362.423 457.64 364.327 456.995 365.792 455.706C367.257 454.417 368.019 452.703 368.077 450.564H379.986C379.957 453.787 379.078 456.746 377.35 459.441C375.621 462.107 373.248 464.188 370.23 465.682C367.242 467.146 363.932 467.879 360.299 467.879C353.502 467.879 348.141 465.726 344.215 461.419C340.289 457.083 338.326 451.106 338.326 443.489V442.654C338.326 435.33 340.274 429.485 344.171 425.12C348.067 420.755 353.414 418.572 360.211 418.572C366.158 418.572 370.919 420.271 374.493 423.67C378.097 427.039 379.928 431.536 379.986 437.161H368.077C368.019 434.7 367.257 432.708 365.792 431.185C364.327 429.632 362.394 428.855 359.991 428.855C357.032 428.855 354.791 429.939 353.268 432.107C351.773 434.246 351.026 437.732 351.026 442.566V443.885C351.026 448.777 351.773 452.293 353.268 454.432C354.762 456.57 357.032 457.64 360.079 457.64ZM408.63 424.637C411.999 420.594 416.232 418.572 421.33 418.572C431.643 418.572 436.872 424.563 437.019 436.546V467H424.318V436.897C424.318 434.173 423.732 432.166 422.561 430.877C421.389 429.559 419.44 428.899 416.716 428.899C412.995 428.899 410.3 430.335 408.63 433.206V467H395.93V399.5H408.63V424.637ZM456.258 460.76C456.258 458.738 456.932 457.098 458.279 455.838C459.656 454.578 461.37 453.948 463.421 453.948C465.501 453.948 467.215 454.578 468.562 455.838C469.939 457.098 470.628 458.738 470.628 460.76C470.628 462.752 469.954 464.378 468.606 465.638C467.259 466.868 465.53 467.483 463.421 467.483C461.341 467.483 459.627 466.868 458.279 465.638C456.932 464.378 456.258 462.752 456.258 460.76Z" fill="#3C3C3C"/>
<path d="M1729.73 467H1716.55V403.016H1729.73V467ZM1761.85 419.451L1762.24 424.944C1765.64 420.696 1770.2 418.572 1775.91 418.572C1780.95 418.572 1784.7 420.052 1787.16 423.011C1789.62 425.97 1790.88 430.394 1790.94 436.282V467H1778.24V436.59C1778.24 433.895 1777.65 431.946 1776.48 430.745C1775.31 429.515 1773.36 428.899 1770.64 428.899C1767.06 428.899 1764.38 430.423 1762.59 433.47V467H1749.89V419.451H1761.85ZM1835.36 453.86C1835.36 452.308 1834.58 451.092 1833.03 450.213C1831.51 449.305 1829.04 448.499 1825.65 447.796C1814.34 445.423 1808.68 440.618 1808.68 433.382C1808.68 429.163 1810.43 425.647 1813.91 422.835C1817.43 419.993 1822.01 418.572 1827.67 418.572C1833.7 418.572 1838.52 419.993 1842.13 422.835C1845.76 425.677 1847.58 429.368 1847.58 433.909H1834.88C1834.88 432.093 1834.29 430.599 1833.12 429.427C1831.95 428.226 1830.11 427.625 1827.62 427.625C1825.49 427.625 1823.83 428.108 1822.66 429.075C1821.49 430.042 1820.9 431.272 1820.9 432.767C1820.9 434.173 1821.56 435.315 1822.88 436.194C1824.23 437.044 1826.48 437.791 1829.65 438.436C1832.81 439.051 1835.48 439.754 1837.64 440.545C1844.35 443.006 1847.71 447.269 1847.71 453.333C1847.71 457.669 1845.85 461.185 1842.13 463.88C1838.41 466.546 1833.6 467.879 1827.71 467.879C1823.73 467.879 1820.18 467.176 1817.08 465.77C1814 464.334 1811.58 462.386 1809.83 459.925C1808.07 457.435 1807.19 454.754 1807.19 451.883H1819.23C1819.35 454.139 1820.18 455.867 1821.74 457.068C1823.29 458.27 1825.37 458.87 1827.98 458.87C1830.41 458.87 1832.24 458.416 1833.47 457.508C1834.73 456.57 1835.36 455.354 1835.36 453.86ZM1878.33 467H1865.58V419.451H1878.33V467ZM1864.84 407.146C1864.84 405.242 1865.47 403.675 1866.73 402.444C1868.02 401.214 1869.76 400.599 1871.96 400.599C1874.12 400.599 1875.85 401.214 1877.14 402.444C1878.43 403.675 1879.08 405.242 1879.08 407.146C1879.08 409.08 1878.42 410.662 1877.1 411.893C1875.81 413.123 1874.09 413.738 1871.96 413.738C1869.82 413.738 1868.09 413.123 1866.77 411.893C1865.48 410.662 1864.84 409.08 1864.84 407.146ZM1895.99 442.874C1895.99 435.579 1897.71 429.705 1901.17 425.252C1904.66 420.799 1909.34 418.572 1915.23 418.572C1920.45 418.572 1924.51 420.359 1927.41 423.934L1927.93 419.451H1939.45V465.418C1939.45 469.578 1938.5 473.196 1936.59 476.272C1934.72 479.349 1932.06 481.692 1928.64 483.304C1925.21 484.915 1921.2 485.721 1916.6 485.721C1913.11 485.721 1909.71 485.018 1906.4 483.611C1903.09 482.234 1900.58 480.447 1898.89 478.25L1904.51 470.516C1907.67 474.061 1911.51 475.833 1916.02 475.833C1919.39 475.833 1922.02 474.925 1923.89 473.108C1925.77 471.321 1926.7 468.772 1926.7 465.462V462.913C1923.77 466.224 1919.92 467.879 1915.15 467.879C1909.43 467.879 1904.8 465.652 1901.26 461.199C1897.74 456.717 1895.99 450.784 1895.99 443.401V442.874ZM1908.69 443.797C1908.69 448.104 1909.55 451.487 1911.28 453.948C1913.01 456.38 1915.38 457.596 1918.4 457.596C1922.26 457.596 1925.03 456.146 1926.7 453.245V433.25C1925 430.35 1922.26 428.899 1918.49 428.899C1915.44 428.899 1913.04 430.145 1911.28 432.635C1909.55 435.125 1908.69 438.846 1908.69 443.797ZM1970.64 424.637C1974.01 420.594 1978.24 418.572 1983.34 418.572C1993.65 418.572 1998.88 424.563 1999.03 436.546V467H1986.33V436.897C1986.33 434.173 1985.74 432.166 1984.57 430.877C1983.4 429.559 1981.45 428.899 1978.73 428.899C1975 428.899 1972.31 430.335 1970.64 433.206V467H1957.94V399.5H1970.64V424.637ZM2032.81 407.762V419.451H2040.94V428.768H2032.81V452.498C2032.81 454.256 2033.15 455.516 2033.82 456.277C2034.5 457.039 2035.79 457.42 2037.69 457.42C2039.1 457.42 2040.34 457.317 2041.43 457.112V466.736C2038.94 467.498 2036.37 467.879 2033.74 467.879C2024.83 467.879 2020.29 463.382 2020.11 454.388V428.768H2013.17V419.451H2020.11V407.762H2032.81ZM2082.77 453.86C2082.77 452.308 2081.99 451.092 2080.44 450.213C2078.92 449.305 2076.46 448.499 2073.06 447.796C2061.75 445.423 2056.1 440.618 2056.1 433.382C2056.1 429.163 2057.84 425.647 2061.33 422.835C2064.84 419.993 2069.43 418.572 2075.08 418.572C2081.12 418.572 2085.93 419.993 2089.54 422.835C2093.17 425.677 2094.99 429.368 2094.99 433.909H2082.29C2082.29 432.093 2081.7 430.599 2080.53 429.427C2079.36 428.226 2077.53 427.625 2075.04 427.625C2072.9 427.625 2071.24 428.108 2070.07 429.075C2068.9 430.042 2068.31 431.272 2068.31 432.767C2068.31 434.173 2068.97 435.315 2070.29 436.194C2071.64 437.044 2073.89 437.791 2077.06 438.436C2080.22 439.051 2082.89 439.754 2085.06 440.545C2091.76 443.006 2095.12 447.269 2095.12 453.333C2095.12 457.669 2093.26 461.185 2089.54 463.88C2085.82 466.546 2081.01 467.879 2075.12 467.879C2071.14 467.879 2067.59 467.176 2064.49 465.77C2061.41 464.334 2059 462.386 2057.24 459.925C2055.48 457.435 2054.6 454.754 2054.6 451.883H2066.64C2066.76 454.139 2067.59 455.867 2069.15 457.068C2070.7 458.27 2072.78 458.87 2075.39 458.87C2077.82 458.87 2079.65 458.416 2080.88 457.508C2082.14 456.57 2082.77 455.354 2082.77 453.86ZM2113 460.76C2113 458.738 2113.67 457.098 2115.02 455.838C2116.39 454.578 2118.11 453.948 2120.16 453.948C2122.24 453.948 2123.95 454.578 2125.3 455.838C2126.68 457.098 2127.37 458.738 2127.37 460.76C2127.37 462.752 2126.69 464.378 2125.34 465.638C2124 466.868 2122.27 467.483 2120.16 467.483C2118.08 467.483 2116.37 466.868 2115.02 465.638C2113.67 464.378 2113 462.752 2113 460.76Z" fill="#3C3C3C"/>
<path d="M591.209 439.271H565.896V456.409H595.604V467H552.713V403.016H595.516V413.694H565.896V428.943H591.209V439.271ZM628.158 451.487L636.991 419.451H650.263L634.223 467H622.094L606.054 419.451H619.325L628.158 451.487ZM691.738 467C691.152 465.857 690.728 464.437 690.464 462.737C687.388 466.165 683.389 467.879 678.467 467.879C673.809 467.879 669.941 466.531 666.865 463.836C663.818 461.141 662.295 457.742 662.295 453.641C662.295 448.602 664.155 444.734 667.876 442.039C671.626 439.344 677.031 437.981 684.092 437.952H689.937V435.228C689.937 433.03 689.365 431.272 688.223 429.954C687.109 428.636 685.337 427.977 682.905 427.977C680.767 427.977 679.082 428.489 677.852 429.515C676.65 430.54 676.05 431.946 676.05 433.733H663.35C663.35 430.979 664.199 428.431 665.898 426.087C667.598 423.743 670 421.912 673.105 420.594C676.211 419.246 679.697 418.572 683.564 418.572C689.424 418.572 694.067 420.052 697.495 423.011C700.952 425.94 702.681 430.071 702.681 435.403V456.014C702.71 460.525 703.34 463.938 704.57 466.253V467H691.738ZM681.235 458.167C683.11 458.167 684.839 457.757 686.421 456.937C688.003 456.087 689.175 454.959 689.937 453.553V445.379H685.19C678.833 445.379 675.449 447.576 675.039 451.971L674.995 452.718C674.995 454.3 675.552 455.604 676.665 456.629C677.778 457.654 679.302 458.167 681.235 458.167ZM734.84 467H722.096V399.5H734.84V467ZM782.819 462.166C779.685 465.975 775.349 467.879 769.812 467.879C764.714 467.879 760.817 466.414 758.122 463.484C755.456 460.555 754.094 456.263 754.035 450.608V419.451H766.735V450.169C766.735 455.12 768.991 457.596 773.503 457.596C777.81 457.596 780.769 456.102 782.38 453.113V419.451H795.124V467H783.171L782.819 462.166ZM841.258 467C840.672 465.857 840.247 464.437 839.983 462.737C836.907 466.165 832.908 467.879 827.986 467.879C823.328 467.879 819.461 466.531 816.385 463.836C813.338 461.141 811.814 457.742 811.814 453.641C811.814 448.602 813.675 444.734 817.396 442.039C821.146 439.344 826.551 437.981 833.611 437.952H839.456V435.228C839.456 433.03 838.885 431.272 837.742 429.954C836.629 428.636 834.856 427.977 832.425 427.977C830.286 427.977 828.602 428.489 827.371 429.515C826.17 430.54 825.569 431.946 825.569 433.733H812.869C812.869 430.979 813.719 428.431 815.418 426.087C817.117 423.743 819.52 421.912 822.625 420.594C825.73 419.246 829.217 418.572 833.084 418.572C838.943 418.572 843.587 420.052 847.015 423.011C850.472 425.94 852.2 430.071 852.2 435.403V456.014C852.229 460.525 852.859 463.938 854.09 466.253V467H841.258ZM830.755 458.167C832.63 458.167 834.358 457.757 835.94 456.937C837.522 456.087 838.694 454.959 839.456 453.553V445.379H834.71C828.353 445.379 824.969 447.576 824.559 451.971L824.515 452.718C824.515 454.3 825.071 455.604 826.185 456.629C827.298 457.654 828.821 458.167 830.755 458.167ZM886.161 407.762V419.451H894.291V428.768H886.161V452.498C886.161 454.256 886.498 455.516 887.172 456.277C887.846 457.039 889.135 457.42 891.039 457.42C892.445 457.42 893.69 457.317 894.774 457.112V466.736C892.284 467.498 889.721 467.879 887.084 467.879C878.178 467.879 873.637 463.382 873.461 454.388V428.768H866.518V419.451H873.461V407.762H886.161ZM923.77 467H911.025V419.451H923.77V467ZM910.278 407.146C910.278 405.242 910.908 403.675 912.168 402.444C913.457 401.214 915.2 400.599 917.397 400.599C919.565 400.599 921.294 401.214 922.583 402.444C923.872 403.675 924.517 405.242 924.517 407.146C924.517 409.08 923.857 410.662 922.539 411.893C921.25 413.123 919.536 413.738 917.397 413.738C915.259 413.738 913.53 413.123 912.212 411.893C910.923 410.662 910.278 409.08 910.278 407.146ZM941.295 442.786C941.295 438.069 942.203 433.865 944.02 430.174C945.836 426.482 948.443 423.626 951.842 421.604C955.27 419.583 959.239 418.572 963.751 418.572C970.167 418.572 975.396 420.535 979.439 424.461C983.512 428.387 985.782 433.719 986.251 440.457L986.339 443.709C986.339 451.004 984.303 456.863 980.23 461.287C976.158 465.682 970.694 467.879 963.839 467.879C956.983 467.879 951.505 465.682 947.403 461.287C943.331 456.893 941.295 450.916 941.295 443.357V442.786ZM953.995 443.709C953.995 448.221 954.845 451.678 956.544 454.08C958.243 456.453 960.675 457.64 963.839 457.64C966.915 457.64 969.317 456.468 971.046 454.124C972.774 451.751 973.639 447.972 973.639 442.786C973.639 438.362 972.774 434.935 971.046 432.503C969.317 430.071 966.886 428.855 963.751 428.855C960.646 428.855 958.243 430.071 956.544 432.503C954.845 434.905 953.995 438.641 953.995 443.709ZM1014.85 419.451L1015.25 424.944C1018.64 420.696 1023.2 418.572 1028.91 418.572C1033.95 418.572 1037.7 420.052 1040.16 423.011C1042.62 425.97 1043.88 430.394 1043.94 436.282V467H1031.24V436.59C1031.24 433.895 1030.66 431.946 1029.48 430.745C1028.31 429.515 1026.36 428.899 1023.64 428.899C1020.07 428.899 1017.38 430.423 1015.6 433.47V467H1002.9V419.451H1014.85ZM1063.27 460.76C1063.27 458.738 1063.94 457.098 1065.29 455.838C1066.67 454.578 1068.38 453.948 1070.43 453.948C1072.51 453.948 1074.23 454.578 1075.57 455.838C1076.95 457.098 1077.64 458.738 1077.64 460.76C1077.64 462.752 1076.97 464.378 1075.62 465.638C1074.27 466.868 1072.54 467.483 1070.43 467.483C1068.35 467.483 1066.64 466.868 1065.29 465.638C1063.94 464.378 1063.27 462.752 1063.27 460.76Z" fill="#3C3C3C"/>
<path d="M1202.84 453.816H1179.72L1175.33 467H1161.31L1185.13 403.016H1197.34L1221.29 467H1207.27L1202.84 453.816ZM1183.28 443.138H1199.28L1191.23 419.188L1183.28 443.138ZM1245.01 419.451L1245.41 424.944C1248.81 420.696 1253.36 418.572 1259.08 418.572C1264.12 418.572 1267.87 420.052 1270.33 423.011C1272.79 425.97 1274.05 430.394 1274.11 436.282V467H1261.41V436.59C1261.41 433.895 1260.82 431.946 1259.65 430.745C1258.48 429.515 1256.53 428.899 1253.8 428.899C1250.23 428.899 1247.55 430.423 1245.76 433.47V467H1233.06V419.451H1245.01ZM1320.33 467C1319.74 465.857 1319.32 464.437 1319.05 462.737C1315.98 466.165 1311.98 467.879 1307.06 467.879C1302.4 467.879 1298.53 466.531 1295.46 463.836C1292.41 461.141 1290.88 457.742 1290.88 453.641C1290.88 448.602 1292.75 444.734 1296.47 442.039C1300.22 439.344 1305.62 437.981 1312.68 437.952H1318.53V435.228C1318.53 433.03 1317.96 431.272 1316.81 429.954C1315.7 428.636 1313.93 427.977 1311.5 427.977C1309.36 427.977 1307.67 428.489 1306.44 429.515C1305.24 430.54 1304.64 431.946 1304.64 433.733H1291.94C1291.94 430.979 1292.79 428.431 1294.49 426.087C1296.19 423.743 1298.59 421.912 1301.7 420.594C1304.8 419.246 1308.29 418.572 1312.15 418.572C1318.01 418.572 1322.66 420.052 1326.08 423.011C1329.54 425.94 1331.27 430.071 1331.27 435.403V456.014C1331.3 460.525 1331.93 463.938 1333.16 466.253V467H1320.33ZM1309.83 458.167C1311.7 458.167 1313.43 457.757 1315.01 456.937C1316.59 456.087 1317.76 454.959 1318.53 453.553V445.379H1313.78C1307.42 445.379 1304.04 447.576 1303.63 451.971L1303.58 452.718C1303.58 454.3 1304.14 455.604 1305.25 456.629C1306.37 457.654 1307.89 458.167 1309.83 458.167ZM1363.43 467H1350.69V399.5H1363.43V467ZM1400.69 449.026L1409.48 419.451H1423.1L1403.98 474.383L1402.93 476.888C1400.09 483.099 1395.4 486.204 1388.87 486.204C1387.02 486.204 1385.14 485.926 1383.24 485.369V475.745L1385.17 475.789C1387.58 475.789 1389.36 475.423 1390.54 474.69C1391.74 473.958 1392.67 472.742 1393.35 471.043L1394.84 467.132L1378.19 419.451H1391.85L1400.69 449.026ZM1452.31 407.762V419.451H1460.44V428.768H1452.31V452.498C1452.31 454.256 1452.65 455.516 1453.32 456.277C1454 457.039 1455.29 457.42 1457.19 457.42C1458.6 457.42 1459.84 457.317 1460.93 457.112V466.736C1458.44 467.498 1455.87 467.879 1453.24 467.879C1444.33 467.879 1439.79 463.382 1439.61 454.388V428.768H1432.67V419.451H1439.61V407.762H1452.31ZM1489.92 467H1477.18V419.451H1489.92V467ZM1476.43 407.146C1476.43 405.242 1477.06 403.675 1478.32 402.444C1479.61 401.214 1481.35 400.599 1483.55 400.599C1485.72 400.599 1487.45 401.214 1488.74 402.444C1490.02 403.675 1490.67 405.242 1490.67 407.146C1490.67 409.08 1490.01 410.662 1488.69 411.893C1487.4 413.123 1485.69 413.738 1483.55 413.738C1481.41 413.738 1479.68 413.123 1478.36 411.893C1477.08 410.662 1476.43 409.08 1476.43 407.146ZM1529.2 457.64C1531.54 457.64 1533.45 456.995 1534.91 455.706C1536.38 454.417 1537.14 452.703 1537.2 450.564H1549.11C1549.08 453.787 1548.2 456.746 1546.47 459.441C1544.74 462.107 1542.37 464.188 1539.35 465.682C1536.36 467.146 1533.05 467.879 1529.42 467.879C1522.62 467.879 1517.26 465.726 1513.34 461.419C1509.41 457.083 1507.45 451.106 1507.45 443.489V442.654C1507.45 435.33 1509.4 429.485 1513.29 425.12C1517.19 420.755 1522.54 418.572 1529.33 418.572C1535.28 418.572 1540.04 420.271 1543.61 423.67C1547.22 427.039 1549.05 431.536 1549.11 437.161H1537.2C1537.14 434.7 1536.38 432.708 1534.91 431.185C1533.45 429.632 1531.51 428.855 1529.11 428.855C1526.15 428.855 1523.91 429.939 1522.39 432.107C1520.89 434.246 1520.15 437.732 1520.15 442.566V443.885C1520.15 448.777 1520.89 452.293 1522.39 454.432C1523.88 456.57 1526.15 457.64 1529.2 457.64ZM1591.11 453.86C1591.11 452.308 1590.33 451.092 1588.78 450.213C1587.26 449.305 1584.8 448.499 1581.4 447.796C1570.09 445.423 1564.44 440.618 1564.44 433.382C1564.44 429.163 1566.18 425.647 1569.67 422.835C1573.18 419.993 1577.77 418.572 1583.42 418.572C1589.46 418.572 1594.27 419.993 1597.88 422.835C1601.51 425.677 1603.33 429.368 1603.33 433.909H1590.63C1590.63 432.093 1590.04 430.599 1588.87 429.427C1587.7 428.226 1585.87 427.625 1583.38 427.625C1581.24 427.625 1579.58 428.108 1578.41 429.075C1577.24 430.042 1576.65 431.272 1576.65 432.767C1576.65 434.173 1577.31 435.315 1578.63 436.194C1579.98 437.044 1582.23 437.791 1585.4 438.436C1588.56 439.051 1591.23 439.754 1593.4 440.545C1600.1 443.006 1603.46 447.269 1603.46 453.333C1603.46 457.669 1601.6 461.185 1597.88 463.88C1594.16 466.546 1589.35 467.879 1583.46 467.879C1579.48 467.879 1575.93 467.176 1572.83 465.77C1569.75 464.334 1567.34 462.386 1565.58 459.925C1563.82 457.435 1562.94 454.754 1562.94 451.883H1574.98C1575.1 454.139 1575.93 455.867 1577.49 457.068C1579.04 458.27 1581.12 458.87 1583.73 458.87C1586.16 458.87 1587.99 458.416 1589.22 457.508C1590.48 456.57 1591.11 455.354 1591.11 453.86ZM1621.34 460.76C1621.34 458.738 1622.01 457.098 1623.36 455.838C1624.73 454.578 1626.45 453.948 1628.5 453.948C1630.58 453.948 1632.29 454.578 1633.64 455.838C1635.02 457.098 1635.71 458.738 1635.71 460.76C1635.71 462.752 1635.03 464.378 1633.68 465.638C1632.34 466.868 1630.61 467.483 1628.5 467.483C1626.42 467.483 1624.71 466.868 1623.36 465.638C1622.01 464.378 1621.34 462.752 1621.34 460.76Z" fill="#3C3C3C"/>
</svg>
